<?xml version="1.0" encoding="UTF-8"?><svg xmlns="http://www.w3.org/2000/svg" viewBox="0 0 380.28 252.22"><defs><style>.c{fill:none;}.c,.d{stroke:#000;stroke-miterlimit:10;}.d{fill:#fff;}</style></defs><g id="a"><path class="c" d="M379.78,95.01c-1.48,87.09-129.09,87.08-130.56,0,1.48-87.09,129.09-87.08,130.56,0Z"/><g/><g><path class="d" d="M40.2,119.88l-13.37,40.49H9.64L53.38,31.64h20.05l43.93,128.73h-17.76l-13.75-40.49H40.2Zm42.21-12.99l-12.61-37.05c-2.86-8.4-4.77-16.04-6.68-23.49h-.38c-1.91,7.64-4.01,15.47-6.49,23.3l-12.61,37.24h38.77Z"/><path class="d" d="M228.52,154.64c-7.45,2.67-22.15,7.07-39.54,7.07-19.48,0-35.52-4.97-48.13-17-11.08-10.7-17.95-27.89-17.95-47.94,.19-38.39,26.55-66.47,69.71-66.47,14.9,0,26.55,3.25,32.09,5.92l-4.01,13.56c-6.88-3.06-15.47-5.54-28.46-5.54-31.32,0-51.76,19.48-51.76,51.76s19.67,51.95,49.66,51.95c10.89,0,18.34-1.53,22.15-3.44v-38.39h-26.17v-13.37h42.4v61.88Z"/></g><g><path d="M48.47,171.21h12.83c1.72,0,3.37,.14,4.96,.42,1.59,.28,2.99,.79,4.21,1.53,1.21,.74,2.18,1.75,2.9,3.01,.72,1.27,1.08,2.88,1.08,4.83,0,3.46-1.09,6.09-3.27,7.9-2.18,1.8-5.37,2.71-9.56,2.71h-10.57v14.89h-2.58v-35.29Zm2.58,17.82h10.67c1.8,0,3.34-.17,4.61-.52,1.27-.34,2.3-.85,3.11-1.51s1.39-1.49,1.76-2.47c.37-.98,.55-2.11,.55-3.4,0-1.57-.27-2.84-.82-3.8s-1.29-1.71-2.22-2.24c-.93-.53-2.01-.88-3.24-1.05s-2.51-.26-3.87-.26h-10.54v15.24Z"/><path d="M86.06,185.23c.82-.92,1.62-1.68,2.4-2.26,.78-.58,1.55-1.02,2.29-1.32s1.45-.5,2.13-.61,1.32-.16,1.92-.16c5.13,0,7.7,3.03,7.7,9.09v16.53h-2.58v-16.31c0-1.16-.1-2.16-.31-3.01-.2-.85-.54-1.55-1-2.09-.46-.55-1.06-.96-1.8-1.22-.74-.27-1.65-.4-2.72-.4-1.42,0-2.78,.42-4.08,1.26-1.3,.84-2.62,2.02-3.95,3.54v18.24h-2.58v-35.29h2.58v14.02Z"/><path d="M122.33,180.88c1.7,0,3.23,.29,4.61,.89,1.37,.59,2.55,1.45,3.51,2.58s1.71,2.5,2.22,4.12c.52,1.62,.77,3.45,.77,5.5s-.26,3.94-.79,5.58c-.53,1.63-1.27,3.01-2.24,4.14s-2.14,1.99-3.51,2.58c-1.38,.59-2.9,.89-4.58,.89s-3.2-.29-4.56-.87c-1.36-.58-2.53-1.43-3.5-2.56s-1.72-2.51-2.26-4.14c-.54-1.63-.81-3.5-.81-5.61s.26-3.9,.79-5.53c.53-1.62,1.27-2.99,2.24-4.11s2.14-1.97,3.51-2.56c1.37-.59,2.9-.89,4.58-.89Zm0,23.69c1.27,0,2.42-.22,3.46-.66,1.04-.44,1.94-1.11,2.69-2,.75-.89,1.34-2,1.76-3.32s.63-2.86,.63-4.62-.21-3.27-.63-4.59-1-2.42-1.76-3.29c-.75-.87-1.65-1.53-2.69-1.97-1.04-.44-2.2-.66-3.46-.66s-2.45,.22-3.5,.66c-1.04,.44-1.94,1.1-2.69,1.97-.75,.87-1.33,1.97-1.74,3.29-.41,1.32-.61,2.85-.61,4.59s.2,3.3,.61,4.62c.41,1.32,.99,2.43,1.74,3.32,.75,.89,1.65,1.56,2.69,2,1.04,.44,2.21,.66,3.5,.66Z"/><path d="M150.28,206.72c-.37,.04-.73,.08-1.1,.1-.37,.02-.73,.03-1.1,.03-1.12,0-2.01-.16-2.69-.47-.68-.31-1.19-.78-1.55-1.4s-.59-1.4-.69-2.34c-.11-.93-.16-2.02-.16-3.27v-15.28h-3.19v-2.58h3.19v-6.54h2.58v6.54h4.09v2.58h-4.09v15.5c0,1.03,.08,1.85,.23,2.46,.15,.61,.38,1.08,.68,1.42,.3,.33,.67,.55,1.11,.64,.44,.1,.94,.15,1.5,.15h.61c.17,0,.37-.01,.58-.03v2.48Z"/><path d="M167.38,180.88c1.7,0,3.23,.29,4.61,.89,1.37,.59,2.55,1.45,3.51,2.58s1.71,2.5,2.22,4.12c.52,1.62,.77,3.45,.77,5.5s-.26,3.94-.79,5.58c-.53,1.63-1.27,3.01-2.24,4.14s-2.14,1.99-3.51,2.58c-1.38,.59-2.9,.89-4.58,.89s-3.2-.29-4.56-.87c-1.36-.58-2.53-1.43-3.5-2.56s-1.72-2.51-2.26-4.14c-.54-1.63-.81-3.5-.81-5.61s.26-3.9,.79-5.53c.53-1.62,1.27-2.99,2.24-4.11s2.14-1.97,3.51-2.56c1.37-.59,2.9-.89,4.58-.89Zm0,23.69c1.27,0,2.42-.22,3.46-.66,1.04-.44,1.94-1.11,2.69-2,.75-.89,1.34-2,1.76-3.32s.63-2.86,.63-4.62-.21-3.27-.63-4.59-1-2.42-1.76-3.29c-.75-.87-1.65-1.53-2.69-1.97-1.04-.44-2.2-.66-3.46-.66s-2.45,.22-3.5,.66c-1.04,.44-1.94,1.1-2.69,1.97-.75,.87-1.33,1.97-1.74,3.29-.41,1.32-.61,2.85-.61,4.59s.2,3.3,.61,4.62c.41,1.32,.99,2.43,1.74,3.32,.75,.89,1.65,1.56,2.69,2,1.04,.44,2.21,.66,3.5,.66Z"/><path d="M206.22,205.01c0,2-.21,3.7-.64,5.11-.43,1.41-1.07,2.55-1.92,3.43-.85,.88-1.92,1.53-3.21,1.93-1.29,.41-2.78,.61-4.48,.61-1.42,0-2.7-.16-3.83-.47-1.14-.31-2.12-.76-2.93-1.34-.82-.58-1.46-1.3-1.92-2.16-.46-.86-.73-1.84-.79-2.93h2.58c.11,1.48,.72,2.57,1.84,3.27,1.12,.7,2.77,1.05,4.96,1.05,1.29,0,2.42-.16,3.38-.47s1.77-.82,2.42-1.53,1.13-1.64,1.47-2.8,.5-2.59,.5-4.29v-1.58c-.84,.99-1.63,1.77-2.37,2.34-.74,.57-1.46,1-2.14,1.29-.69,.29-1.35,.47-1.98,.55s-1.25,.11-1.85,.11c-1.57,0-2.95-.31-4.16-.93-1.2-.62-2.21-1.5-3.03-2.63-.82-1.13-1.43-2.49-1.85-4.08s-.63-3.36-.63-5.32c0-2.06,.25-3.92,.76-5.56,.5-1.64,1.2-3.04,2.09-4.19,.89-1.15,1.94-2.03,3.16-2.64,1.21-.61,2.52-.92,3.92-.92,.6,0,1.22,.04,1.87,.13s1.31,.24,2,.47c.69,.23,1.39,.53,2.09,.92s1.42,.88,2.13,1.48v-2.35h2.58v23.49Zm-2.58-17.95c-1.16-1.2-2.37-2.11-3.63-2.71s-2.65-.9-4.17-.9c-1.16,0-2.21,.22-3.14,.66-.93,.44-1.74,1.11-2.4,2-.67,.89-1.18,2.01-1.55,3.35-.37,1.34-.55,2.92-.55,4.72,0,3.39,.66,5.97,1.97,7.73,1.31,1.76,3.14,2.64,5.48,2.64,1.55,0,2.96-.42,4.25-1.27,1.29-.85,2.53-2.11,3.74-3.79v-12.44Z"/><path d="M228.05,183.52c-.24-.04-.49-.06-.77-.06h-.93c-.73,0-1.44,.15-2.13,.45s-1.34,.69-1.97,1.18-1.2,1.03-1.74,1.64-1,1.24-1.39,1.89v17.89h-2.58v-24.98h2.58v3.45c.73-.86,1.46-1.56,2.18-2.09,.72-.54,1.42-.96,2.09-1.26s1.33-.5,1.95-.6,1.19-.14,1.71-.14c.17,0,.33,0,.48,.02,.15,.01,.32,.03,.52,.05v2.58Z"/><path d="M251.3,203.27c-.88,.77-1.74,1.41-2.58,1.92-.84,.5-1.66,.9-2.47,1.19s-1.61,.49-2.4,.6c-.79,.11-1.6,.16-2.42,.16-1.1,0-2.12-.17-3.06-.5-.95-.33-1.76-.81-2.45-1.42-.69-.61-1.23-1.35-1.63-2.22s-.6-1.83-.6-2.88c0-2.86,1.22-5.08,3.66-6.67s6.1-2.38,10.97-2.38h2.96c0-1.1-.06-2.11-.19-3.03s-.43-1.72-.9-2.4c-.47-.68-1.17-1.21-2.09-1.59-.92-.39-2.18-.58-3.77-.58-2.34,0-4.1,.37-5.27,1.1s-1.86,1.84-2.08,3.32h-2.55c.26-2.36,1.18-4.12,2.77-5.27,1.59-1.15,3.95-1.72,7.09-1.72,1.74,0,3.22,.21,4.43,.64s2.2,1.05,2.96,1.85,1.32,1.78,1.66,2.93c.34,1.15,.52,2.44,.52,3.88v16.31h-2.58v-3.22Zm0-9.64h-3.9c-3.74,0-6.53,.54-8.36,1.61s-2.75,2.61-2.75,4.61c0,1.48,.58,2.64,1.74,3.46,1.16,.83,2.75,1.24,4.77,1.24,.88,0,1.73-.13,2.56-.4,.83-.27,1.61-.62,2.34-1.05,.73-.43,1.4-.91,2.01-1.43,.61-.53,1.14-1.04,1.6-1.53v-6.51Z"/><path d="M266.79,185.23c.82-.99,1.61-1.77,2.37-2.35s1.5-1.02,2.21-1.32,1.39-.49,2.05-.58,1.29-.13,1.92-.13c1.55,0,2.92,.31,4.12,.93s2.21,1.5,3.03,2.63,1.44,2.49,1.87,4.08,.64,3.35,.64,5.29c0,2.04-.25,3.88-.76,5.53s-1.2,3.05-2.09,4.21c-.89,1.16-1.95,2.06-3.16,2.69-1.21,.63-2.53,.95-3.95,.95-.6,0-1.22-.03-1.87-.08s-1.31-.19-2-.4c-.69-.21-1.4-.53-2.13-.95s-1.48-.98-2.26-1.69v11.67h-2.58v-34.16h2.58v3.71Zm0,15.66c2.32,2.45,4.98,3.67,7.99,3.67,1.16,0,2.21-.23,3.14-.69,.94-.46,1.74-1.14,2.4-2.05s1.18-2.03,1.55-3.37c.37-1.34,.55-2.91,.55-4.69,0-3.39-.65-5.96-1.95-7.7-1.3-1.74-3.13-2.61-5.5-2.61-3.09,0-5.82,1.67-8.19,5v12.44Z"/><path d="M296.35,185.23c.82-.92,1.62-1.68,2.4-2.26,.78-.58,1.55-1.02,2.29-1.32,.74-.3,1.45-.5,2.13-.61,.68-.11,1.32-.16,1.92-.16,5.13,0,7.7,3.03,7.7,9.09v16.53h-2.58v-16.31c0-1.16-.1-2.16-.31-3.01-.21-.85-.54-1.55-1-2.09s-1.06-.96-1.8-1.22c-.74-.27-1.65-.4-2.72-.4-1.42,0-2.78,.42-4.08,1.26-1.3,.84-2.62,2.02-3.95,3.54v18.24h-2.58v-35.29h2.58v14.02Z"/><path d="M341.87,181.52l-9.09,25.43c-.56,1.5-1.12,2.82-1.69,3.96-.57,1.14-1.19,2.09-1.85,2.87s-1.4,1.35-2.21,1.74c-.81,.39-1.7,.58-2.69,.58-.34,0-.68-.01-1-.03-.32-.02-.64-.05-.97-.1v-2.77c.17,.02,.35,.03,.55,.03h.61c1.48,0,2.75-.51,3.8-1.53s1.98-2.68,2.77-4.98l-9.51-25.2h2.84l8.15,21.79,7.48-21.79h2.8Z"/></g><path class="d" d="M367.38,94.31c-1.18,69.61-103.18,69.6-104.35,0,1.18-69.61,103.18-69.6,104.35,0Z"/><path class="c" d="M314.98,50.14c21.79-2.54,41.31,14.87,41.73,36.97"/></g><g id="b"/></svg>